<svg xmlns="http://www.w3.org/2000/svg" width="1359" height="210" viewBox="0 0 1359 210" version="1.1"><path d="" stroke="none" fill="#ec4c0c" fill-rule="evenodd"/><path d="M 19.636 102.250 C 9.270 158.488, 0.555 205.737, 0.269 207.250 L -0.250 210 68.215 210 L 136.681 210 142.601 207.042 C 145.857 205.414, 150.488 202.152, 152.891 199.792 C 155.295 197.431, 158.760 193.250, 160.592 190.500 C 162.424 187.750, 165.027 182.555, 166.375 178.956 C 167.724 175.357, 170.476 163.503, 172.491 152.614 C 174.815 140.058, 176.137 129.941, 176.104 124.955 C 176.070 119.825, 175.348 115.002, 174.026 111.078 C 172.912 107.770, 172 104.886, 172 104.669 C 172 104.452, 173.396 102.526, 175.102 100.388 C 176.808 98.249, 179.458 94.025, 180.990 91 C 182.522 87.975, 184.483 83.114, 185.349 80.198 C 186.215 77.282, 188.568 66.032, 190.578 55.198 C 193.431 39.818, 194.117 33.965, 193.705 28.500 C 193.414 24.650, 192.241 19.010, 191.098 15.968 C 189.815 12.554, 187.388 8.842, 184.760 6.276 C 182.417 3.988, 179.233 1.640, 177.685 1.058 C 175.806 0.352, 152.194 0, 106.677 0 L 38.484 -0 19.636 102.250 M 563.503 2.250 C 563.209 3.488, 554.649 49.725, 544.480 105 C 534.311 160.275, 525.758 206.520, 525.472 207.767 L 524.953 210.034 550.699 209.767 L 576.445 209.500 586.678 154.500 C 592.306 124.250, 596.931 99.162, 596.955 98.750 C 596.980 98.338, 608.720 98, 623.045 98 L 649.091 98 651.545 100.455 C 653.439 102.348, 654 103.959, 654 107.501 C 654 110.027, 650.175 132.885, 645.501 158.297 C 640.826 183.708, 636.739 205.745, 636.418 207.267 L 635.834 210.034 661.579 209.767 L 687.323 209.500 698.149 151 C 704.104 118.825, 708.976 90.025, 708.976 87 C 708.976 83.975, 708.329 79.070, 707.539 76.099 C 706.748 73.129, 704.829 68.641, 703.274 66.126 C 701.594 63.408, 698.462 60.325, 695.554 58.526 L 690.661 55.500 647.828 55.183 L 604.996 54.866 605.487 52.683 C 605.757 51.482, 607.793 40.375, 610.010 28 C 612.228 15.625, 614.293 4.263, 614.600 2.750 L 615.159 0 589.599 0 L 564.038 0 563.503 2.250 M 81.984 42.750 C 81.975 43.163, 80.401 51.825, 78.487 62 C 76.572 72.175, 75.005 81.063, 75.003 81.750 C 75.001 82.718, 80.938 83, 101.365 83 C 126.095 83, 127.886 82.878, 130.238 81.027 C 131.618 79.942, 133.493 77.481, 134.406 75.557 C 135.319 73.633, 136.908 67.452, 137.938 61.820 C 139.454 53.533, 139.591 50.911, 138.655 48.068 C 138.002 46.081, 136.414 44.007, 135 43.293 C 133.185 42.376, 125.577 42.025, 107.250 42.015 C 93.362 42.007, 81.993 42.337, 81.984 42.750 M 229.723 56.014 C 227.095 56.470, 222.947 58.013, 220.505 59.444 C 218.064 60.875, 213.840 64.307, 211.119 67.071 C 208.399 69.834, 204.376 75.562, 202.180 79.798 C 199.984 84.034, 197.692 89.360, 197.087 91.632 C 196.482 93.905, 192.808 112.805, 188.923 133.632 C 182.515 167.982, 181.902 172.383, 182.316 181 C 182.573 186.330, 183.445 192.036, 184.304 194 C 185.146 195.925, 187.181 199.353, 188.827 201.617 C 190.515 203.939, 193.764 206.675, 196.276 207.892 C 200.701 210.033, 201.130 210.047, 257.116 209.774 L 313.500 209.500 318.392 207.002 C 321.083 205.628, 325.583 202.216, 328.392 199.421 C 331.202 196.626, 334.968 191.869, 336.762 188.851 C 338.556 185.833, 340.910 180.841, 341.994 177.756 C 343.078 174.672, 347.175 155.127, 351.099 134.324 C 356.329 106.593, 358.261 94.099, 358.342 87.500 C 358.418 81.232, 357.911 76.931, 356.672 73.329 C 355.693 70.486, 353.024 66.037, 350.741 63.443 C 348.457 60.849, 344.994 58, 343.045 57.113 C 339.942 55.701, 332.949 55.480, 287 55.343 C 258.125 55.257, 232.350 55.559, 229.723 56.014 M 404.842 55.997 C 402.280 56.443, 398.137 58.007, 395.635 59.474 C 393.133 60.940, 388.578 64.849, 385.512 68.161 C 382.445 71.473, 378.664 76.729, 377.108 79.841 C 375.552 82.954, 373.558 87.750, 372.678 90.500 C 371.798 93.250, 366.562 120.025, 361.042 150 C 355.523 179.975, 350.742 205.745, 350.420 207.267 L 349.834 210.034 375.586 209.767 L 401.338 209.500 410.565 159.402 C 415.639 131.848, 420.470 107.998, 421.301 106.402 C 422.131 104.806, 424.013 102.375, 425.483 101 C 428.152 98.504, 428.198 98.499, 451.072 98.198 L 473.986 97.896 476.493 100.402 C 478.373 102.282, 479 103.959, 479 107.109 C 479 109.418, 474.950 133.269, 470 160.110 C 465.050 186.951, 461 209.156, 461 209.456 C 461 209.755, 472.466 210, 486.481 210 L 511.962 210 512.481 207.750 C 512.767 206.513, 517.759 179.850, 523.575 148.500 C 532.539 100.177, 534.075 90.434, 533.663 84.500 C 533.395 80.650, 532.226 74.971, 531.065 71.879 C 529.903 68.788, 527.315 64.571, 525.312 62.509 C 523.310 60.448, 520.058 58.027, 518.086 57.130 C 514.932 55.696, 508.178 55.481, 462 55.343 C 433.125 55.257, 407.404 55.551, 404.842 55.997 M 755.223 56.062 C 752.870 56.526, 748.703 58.126, 745.962 59.617 C 743.221 61.109, 738.816 64.618, 736.174 67.415 C 733.532 70.212, 730.141 74.600, 728.638 77.168 C 727.136 79.735, 724.981 84.460, 723.849 87.668 C 722.717 90.875, 718.431 111.500, 714.323 133.500 C 707.928 167.750, 706.927 174.578, 707.357 181 C 707.633 185.125, 708.600 190.613, 709.505 193.195 C 710.410 195.777, 712.925 199.905, 715.093 202.369 C 717.379 204.966, 720.815 207.524, 723.268 208.456 C 727.006 209.876, 733.983 210.031, 783 209.782 L 838.500 209.500 843.500 207.068 C 846.250 205.731, 851.200 201.902, 854.500 198.560 C 858.127 194.886, 861.801 189.835, 863.791 185.786 C 865.600 182.103, 867.713 176.932, 868.485 174.295 C 869.257 171.658, 872.941 153.300, 876.672 133.500 C 882.318 103.532, 883.458 95.724, 883.477 86.898 C 883.499 76.733, 883.356 76.014, 880 69.440 C 877.561 64.662, 875.244 61.703, 872.356 59.677 C 870.077 58.078, 866.252 56.392, 863.856 55.929 C 861.460 55.466, 837 55.117, 809.500 55.153 C 782 55.189, 757.575 55.598, 755.223 56.062 M 930.223 56.062 C 927.870 56.526, 923.667 58.145, 920.883 59.660 C 918.099 61.175, 913.658 64.782, 911.015 67.674 C 908.371 70.567, 905.070 74.970, 903.679 77.459 C 902.288 79.948, 900.207 84.503, 899.056 87.581 C 897.904 90.659, 892.252 118.675, 886.495 149.838 C 880.738 181.002, 875.839 207.287, 875.608 208.250 C 875.216 209.882, 876.918 210, 900.898 210 L 926.609 210 935.842 159.887 C 941.887 127.074, 945.766 108.419, 947.077 105.848 C 948.179 103.689, 950.525 101.041, 952.290 99.965 C 955.260 98.154, 957.455 98.007, 981.630 98.004 L 1007.760 98 1010.489 83.250 C 1011.990 75.138, 1013.786 65.704, 1014.479 62.287 C 1015.173 58.870, 1015.499 55.832, 1015.204 55.537 C 1014.908 55.242, 996.629 55.049, 974.583 55.110 C 952.537 55.170, 932.575 55.598, 930.223 56.062 M 1055.500 55.932 C 1053.300 56.307, 1049.700 57.466, 1047.500 58.507 C 1045.300 59.548, 1040.563 63.347, 1036.973 66.950 C 1033.384 70.552, 1029.021 76.216, 1027.279 79.535 C 1025.537 82.854, 1023.212 88.929, 1022.113 93.035 C 1021.013 97.141, 1019.347 105.209, 1018.411 110.964 C 1016.997 119.652, 1016.900 122.665, 1017.842 128.724 C 1018.466 132.737, 1020.065 138.153, 1021.395 140.760 C 1022.725 143.367, 1025.093 146.714, 1026.657 148.197 C 1028.221 149.680, 1031.173 151.593, 1033.218 152.447 C 1036.342 153.752, 1042.595 154, 1072.345 154 C 1102.689 154, 1107.934 154.216, 1109.007 155.508 C 1109.779 156.439, 1110.036 158.389, 1109.678 160.598 C 1109.358 162.567, 1108.570 164.813, 1107.926 165.589 C 1106.947 166.769, 1098.671 167, 1057.448 167 L 1008.142 167 1007.100 172.250 C 1006.527 175.137, 1004.909 183.800, 1003.504 191.500 C 1002.098 199.200, 1000.724 206.522, 1000.450 207.770 L 999.952 210.040 1069.226 209.770 L 1138.500 209.500 1143.423 207.077 C 1146.131 205.744, 1150.925 202.075, 1154.077 198.923 C 1157.944 195.056, 1161.148 190.477, 1163.928 184.846 C 1166.767 179.095, 1168.847 172.769, 1170.619 164.500 C 1172.287 156.715, 1173.196 149.338, 1173.205 143.500 C 1173.216 136.588, 1172.702 133.136, 1170.989 128.619 C 1169.762 125.385, 1167.227 121.043, 1165.356 118.972 C 1163.484 116.900, 1160.276 114.372, 1158.227 113.353 C 1154.866 111.682, 1150.912 111.451, 1118 111 L 1081.500 110.500 1081.190 106.764 C 1080.949 103.853, 1081.436 102.473, 1083.395 100.514 L 1085.909 98 1134.409 98 L 1182.909 98 1183.596 94.250 C 1183.973 92.188, 1185.731 82.850, 1187.502 73.500 C 1189.273 64.150, 1190.533 56.163, 1190.302 55.750 C 1190.071 55.338, 1160.546 55.056, 1124.691 55.125 C 1088.836 55.194, 1057.700 55.557, 1055.500 55.932 M 1230.223 56.062 C 1227.870 56.526, 1223.762 58.093, 1221.093 59.546 C 1218.424 60.998, 1214.189 64.282, 1211.680 66.843 C 1209.172 69.405, 1205.592 74.050, 1203.726 77.166 C 1201.859 80.282, 1199.379 85.907, 1198.215 89.666 C 1197.051 93.425, 1192.873 114.050, 1188.930 135.500 C 1182.919 168.197, 1181.847 175.631, 1182.292 181.500 C 1182.584 185.350, 1183.780 191.046, 1184.949 194.157 C 1186.363 197.921, 1188.534 201.160, 1191.439 203.837 C 1193.840 206.050, 1197.536 208.362, 1199.652 208.974 C 1202.354 209.756, 1223.444 210, 1270.469 209.794 L 1337.437 209.500 1341.172 189.500 C 1343.226 178.500, 1344.927 168.938, 1344.953 168.250 C 1344.990 167.265, 1333.966 167, 1293.039 167 L 1241.078 167 1239.039 164.811 C 1237.641 163.311, 1237 161.268, 1237 158.311 L 1237 154 1292.500 154 C 1323.025 154, 1348 153.751, 1348 153.447 C 1348 153.142, 1350.525 139.080, 1353.611 122.197 C 1358.400 95.997, 1359.144 90.338, 1358.693 83.570 C 1358.269 77.211, 1357.504 74.345, 1354.832 69.112 C 1352.538 64.617, 1350.194 61.668, 1347.306 59.642 C 1344.999 58.024, 1340.949 56.344, 1338.306 55.910 C 1335.663 55.475, 1311.225 55.142, 1284 55.169 C 1256.775 55.197, 1232.575 55.598, 1230.223 56.062 M 253.500 98.954 C 252.400 99.409, 250.509 100.849, 249.298 102.154 C 248.086 103.459, 246.451 106.096, 245.664 108.014 C 244.877 109.931, 242.291 122.238, 239.918 135.362 L 235.604 159.224 237.553 162.862 L 239.503 166.500 263.427 166.769 L 287.352 167.037 290.299 164.269 C 291.920 162.746, 293.860 160.065, 294.611 158.311 C 295.362 156.557, 297.781 145.086, 299.988 132.820 C 302.195 120.553, 304 109.254, 304 107.709 C 304 106.164, 303.343 103.630, 302.540 102.077 C 301.737 100.525, 300.050 98.978, 298.790 98.641 C 297.531 98.303, 287.275 98.050, 276 98.077 C 264.725 98.104, 254.600 98.499, 253.500 98.954 M 776.985 100.250 C 775.164 101.487, 772.843 104.110, 771.828 106.079 C 770.812 108.047, 768.186 119.509, 765.991 131.550 C 763.796 143.591, 762 155.508, 762 158.033 C 762 161.270, 762.601 163.268, 764.039 164.811 C 766.025 166.943, 766.688 167, 789.671 167 L 813.264 167 816.431 163.642 C 818.173 161.795, 820.117 158.532, 820.750 156.392 C 821.383 154.251, 823.717 142.234, 825.937 129.686 C 829.617 108.889, 829.850 106.576, 828.572 103.517 C 827.800 101.671, 826.261 99.675, 825.150 99.080 C 823.884 98.403, 815.144 98, 801.714 98 C 781.150 98, 780.164 98.090, 776.985 100.250 M 1252.395 99.901 C 1250.688 100.942, 1248.363 103.303, 1247.228 105.147 C 1246.071 107.029, 1244.312 113.216, 1243.220 119.250 L 1241.273 130 1271.136 130 C 1287.561 130, 1301.007 129.662, 1301.016 129.250 C 1301.026 128.838, 1301.877 123.843, 1302.909 118.151 C 1304.261 110.693, 1304.524 106.861, 1303.853 104.431 C 1303.341 102.576, 1301.940 100.371, 1300.739 99.529 C 1298.943 98.272, 1294.733 98.001, 1277.027 98.004 C 1257.669 98.007, 1255.187 98.198, 1252.395 99.901 M 63.089 144.750 C 61.215 155.063, 59.476 164.287, 59.224 165.250 C 58.797 166.884, 60.523 167, 85.307 167 L 111.847 167 115.059 164.297 C 116.826 162.810, 118.843 160.222, 119.541 158.547 C 120.239 156.871, 121.614 150.739, 122.596 144.919 C 124.080 136.134, 124.169 133.823, 123.124 131.299 C 122.431 129.627, 120.749 127.751, 119.385 127.130 C 117.752 126.386, 108.304 126, 91.701 126 L 66.496 126 63.089 144.750" stroke="none" fill="#ec440c" fill-rule="evenodd"/></svg>