<?xml version="1.0" standalone="no"?>
<!DOCTYPE svg PUBLIC "-//W3C//DTD SVG 20010904//EN"
 "http://www.w3.org/TR/2001/REC-SVG-20010904/DTD/svg10.dtd">
<svg version="1.0" xmlns="http://www.w3.org/2000/svg"
 width="4077.000000pt" height="630.000000pt" viewBox="0 0 4077.000000 630.000000"
 preserveAspectRatio="xMidYMid meet">
<metadata>
Created by potrace 1.10, written by Peter Selinger 2001-2011
</metadata>
<g transform="translate(0.000000,630.000000) scale(0.100000,-0.100000)"
fill="#000000" stroke="none">
<path d="M390 6260 c0 -22 -7 -57 -15 -77 -8 -19 -15 -55 -15 -80 0 -24 -7
-60 -15 -80 -8 -19 -15 -55 -15 -79 0 -24 -6 -61 -14 -81 -8 -21 -17 -67 -19
-102 -3 -35 -10 -68 -16 -74 -6 -6 -11 -36 -11 -66 0 -31 -7 -69 -15 -85 -8
-15 -15 -50 -15 -77 0 -28 -7 -66 -15 -86 -8 -19 -15 -59 -15 -87 0 -28 -7
-64 -15 -80 -8 -15 -15 -50 -15 -77 0 -28 -7 -66 -15 -86 -8 -19 -15 -55 -15
-80 0 -24 -7 -60 -15 -80 -8 -19 -15 -59 -15 -87 -1 -28 -7 -62 -15 -76 -8
-14 -14 -49 -15 -78 0 -29 -7 -69 -15 -89 -8 -19 -15 -58 -15 -85 0 -27 -5
-59 -12 -71 -7 -12 -15 -53 -19 -92 -3 -38 -8 -77 -10 -85 -4 -13 74 -15 651
-15 678 0 662 -1 749 39 32 14 151 133 151 150 0 8 7 19 15 26 8 7 15 21 15
31 0 9 7 24 15 33 8 8 15 25 15 38 1 13 7 34 15 48 8 14 14 44 15 66 0 23 7
61 15 84 8 23 15 62 15 87 0 24 7 60 15 80 20 48 21 244 1 276 -8 12 -18 39
-21 59 -6 30 -3 40 14 54 12 10 21 22 21 26 0 4 13 27 30 51 16 25 30 51 30
59 0 8 7 23 15 34 8 10 15 30 15 44 0 14 7 38 15 54 8 15 15 47 15 71 0 23 7
62 15 85 8 23 15 59 15 80 0 21 7 57 15 80 27 78 16 199 -28 297 -15 34 -67
83 -104 98 -18 8 -33 21 -33 29 0 14 -71 16 -665 16 l-665 0 0 -40z m959 -390
c10 -5 26 -30 35 -55 14 -36 16 -52 7 -77 -6 -17 -11 -52 -11 -77 -1 -25 -7
-57 -15 -71 -8 -14 -14 -34 -15 -46 0 -11 -19 -39 -42 -62 l-41 -42 -266 0
c-146 0 -272 4 -280 9 -9 6 -12 18 -7 37 4 16 11 59 15 96 5 37 13 73 18 80 6
7 13 42 16 78 3 36 12 82 21 103 l16 37 266 0 c149 0 273 -4 283 -10z m-139
-855 c23 -24 24 -33 22 -121 -1 -57 -8 -109 -17 -131 -8 -19 -15 -43 -15 -53
0 -10 -19 -39 -41 -64 l-41 -46 -273 0 c-311 0 -306 -1 -280 71 8 24 15 64 15
89 1 25 7 63 15 85 8 22 15 56 15 75 0 46 16 101 32 112 7 4 133 8 279 8 l266
0 23 -25z"/>
<path d="M5610 6265 c0 -20 -7 -52 -15 -72 -8 -19 -15 -55 -15 -80 0 -24 -7
-60 -15 -80 -8 -19 -15 -55 -15 -78 0 -23 -7 -62 -15 -85 -8 -23 -15 -62 -15
-87 0 -24 -7 -60 -15 -80 -8 -19 -15 -56 -15 -82 -1 -25 -7 -64 -15 -86 -8
-22 -15 -59 -15 -83 0 -23 -7 -59 -15 -79 -8 -19 -15 -55 -15 -80 0 -24 -7
-60 -15 -80 -8 -19 -15 -56 -15 -82 -1 -25 -7 -64 -15 -86 -8 -22 -15 -59 -15
-83 0 -23 -7 -59 -15 -79 -8 -19 -15 -55 -15 -79 0 -23 -5 -55 -11 -71 -6 -15
-15 -61 -20 -102 -5 -41 -13 -79 -19 -85 -5 -5 -10 -31 -10 -58 0 -26 -6 -67
-14 -90 -8 -24 -16 -70 -20 -104 -3 -33 -8 -68 -12 -77 -6 -16 13 -17 223 -17
165 0 232 3 241 12 7 7 12 34 12 60 0 27 7 65 15 85 8 19 15 55 15 80 0 24 7
60 15 80 8 19 15 58 15 85 0 27 7 65 15 85 8 19 15 55 15 80 0 24 7 60 15 80
8 19 15 59 15 87 1 28 7 62 15 76 8 14 14 50 15 80 0 30 7 68 15 84 8 15 15
45 15 65 0 55 9 77 36 90 27 12 427 16 483 5 18 -4 48 -22 67 -40 32 -31 34
-38 34 -96 -1 -35 -7 -81 -15 -103 -8 -22 -15 -59 -15 -82 0 -24 -6 -60 -14
-80 -8 -21 -17 -67 -19 -102 -3 -35 -10 -68 -16 -74 -6 -6 -11 -36 -11 -66 0
-31 -7 -69 -15 -85 -8 -15 -15 -50 -15 -77 0 -28 -7 -66 -15 -86 -8 -19 -15
-59 -15 -87 -1 -28 -7 -62 -15 -76 -8 -14 -14 -37 -15 -52 l0 -28 230 0 c211
0 231 1 236 18 3 9 10 25 15 34 5 10 9 40 9 68 0 27 6 67 14 87 8 21 17 67 20
103 3 35 11 69 16 74 6 6 10 33 10 60 1 28 7 69 15 91 8 22 15 58 15 80 1 22
7 58 15 80 8 22 15 59 15 82 0 24 6 60 14 80 8 21 17 66 19 101 3 34 11 69 17
77 8 9 12 63 13 157 1 130 -1 147 -22 190 -12 26 -43 66 -68 88 l-46 40 -431
0 c-323 0 -435 3 -444 12 -16 16 -15 67 3 98 8 14 14 49 15 78 0 29 7 69 15
89 8 19 15 59 15 87 1 28 7 62 15 76 8 14 14 52 15 88 l0 62 -230 0 -230 0 0
-35z"/>
<path d="M2226 5701 c-3 -5 -23 -18 -45 -29 -66 -34 -159 -144 -175 -205 -3
-15 -11 -27 -16 -27 -6 0 -10 -12 -10 -27 0 -16 -7 -41 -15 -57 -8 -15 -15
-48 -15 -73 0 -24 -6 -56 -14 -71 -7 -15 -16 -60 -18 -100 -3 -40 -11 -79 -17
-85 -6 -6 -11 -33 -11 -59 0 -27 -7 -65 -15 -85 -8 -19 -15 -58 -15 -85 0 -27
-7 -65 -16 -86 -12 -28 -16 -74 -18 -182 -1 -133 1 -149 22 -192 30 -62 68
-97 129 -120 44 -17 87 -18 558 -18 562 1 565 1 652 64 53 39 113 106 125 139
5 15 14 27 19 27 5 0 9 8 9 18 0 10 7 27 15 38 8 10 15 28 15 39 0 11 7 33 15
49 8 15 15 48 15 72 0 24 6 61 14 81 8 21 17 67 19 102 3 35 10 68 16 74 6 6
11 35 11 64 0 29 6 70 14 90 8 21 17 67 20 102 3 35 11 70 17 77 7 8 12 69 13
156 1 131 -1 147 -22 190 -13 26 -44 66 -69 88 l-46 40 -578 0 c-330 0 -580
-4 -583 -9z m697 -368 c25 -3 49 -17 73 -40 l36 -35 -4 -79 c-3 -44 -10 -85
-16 -91 -7 -7 -12 -39 -12 -73 -1 -33 -7 -71 -15 -85 -8 -14 -14 -49 -15 -78
0 -29 -7 -69 -15 -89 -8 -19 -15 -43 -15 -52 0 -9 -18 -37 -41 -63 l-41 -48
-242 0 -242 0 -27 28 c-24 25 -27 35 -27 103 1 40 7 92 15 114 8 22 15 59 15
82 0 24 6 60 14 80 8 21 16 65 19 99 3 33 9 69 14 80 42 85 54 101 91 121 22
11 48 23 58 26 26 6 331 6 377 0z"/>
<path d="M3966 5701 c-3 -5 -24 -18 -46 -30 -47 -25 -109 -86 -135 -135 -11
-20 -23 -36 -27 -36 -5 0 -8 -8 -8 -18 0 -10 -7 -27 -15 -38 -8 -10 -15 -28
-15 -39 0 -11 -7 -33 -15 -49 -8 -15 -15 -47 -15 -70 -1 -22 -7 -59 -15 -81
-8 -22 -15 -58 -15 -80 -1 -22 -7 -58 -15 -80 -8 -22 -15 -59 -15 -83 0 -23
-7 -59 -15 -79 -8 -19 -15 -56 -15 -82 -1 -25 -7 -64 -15 -86 -8 -22 -15 -59
-15 -83 0 -23 -7 -59 -15 -79 -8 -19 -15 -55 -15 -79 0 -24 -6 -61 -14 -81 -8
-21 -17 -65 -19 -98 -3 -33 -8 -68 -12 -77 -7 -17 8 -18 222 -18 165 0 232 3
241 12 7 7 12 32 12 58 1 25 7 63 15 85 8 22 15 63 15 90 0 28 7 61 15 75 8
14 15 48 15 75 1 28 7 68 15 90 8 22 15 59 15 83 0 23 7 59 15 79 8 19 15 58
15 85 0 27 7 65 15 85 8 19 15 56 15 82 0 25 7 59 15 75 8 15 15 37 15 47 0
11 7 22 15 25 8 3 17 14 20 25 4 11 25 29 48 41 37 18 62 21 212 24 223 5 246
2 291 -43 l36 -35 -4 -79 c-3 -44 -10 -85 -16 -91 -7 -7 -12 -37 -12 -67 0
-31 -7 -69 -15 -85 -8 -15 -15 -50 -15 -77 0 -28 -7 -66 -15 -86 -8 -19 -15
-61 -15 -92 0 -35 -6 -65 -15 -77 -8 -11 -14 -41 -15 -72 0 -29 -7 -69 -15
-89 -8 -19 -15 -59 -15 -87 -1 -28 -7 -62 -15 -76 -8 -14 -14 -37 -15 -53 l0
-27 231 2 231 3 14 40 c7 22 14 58 14 80 1 22 7 58 15 80 8 22 15 59 15 83 0
23 7 59 15 79 8 19 15 55 15 78 0 23 7 62 15 85 8 23 15 61 15 84 1 22 7 59
15 81 8 22 15 59 15 81 0 23 7 61 15 84 8 23 15 60 15 81 0 21 7 60 16 86 12
34 17 85 18 178 0 116 -2 135 -23 177 -12 26 -43 66 -68 88 l-46 40 -578 0
c-330 0 -580 -4 -583 -9z"/>
<path d="M7405 5678 c-53 -33 -145 -124 -145 -144 0 -6 -7 -17 -15 -24 -8 -7
-15 -20 -15 -30 0 -10 -7 -23 -15 -30 -8 -7 -15 -24 -15 -39 -1 -14 -7 -37
-15 -51 -8 -14 -14 -44 -15 -68 0 -23 -7 -59 -15 -79 -8 -19 -15 -56 -15 -82
-1 -25 -7 -64 -15 -86 -8 -22 -15 -58 -15 -80 -1 -22 -7 -58 -15 -80 -8 -22
-15 -59 -15 -83 0 -23 -7 -59 -16 -80 -12 -28 -16 -75 -18 -198 -1 -141 1
-163 17 -178 9 -10 17 -23 17 -30 0 -21 61 -75 108 -96 43 -19 67 -20 566 -20
433 1 525 3 546 15 14 8 35 14 47 15 14 0 51 28 101 78 78 77 132 165 147 239
4 18 11 35 16 38 5 4 9 32 9 63 0 31 7 70 15 86 8 15 15 50 15 77 0 28 7 66
15 86 8 19 15 55 15 80 0 24 7 60 15 80 8 19 15 58 15 85 0 27 7 65 15 85 11
27 16 75 16 175 1 162 -12 201 -88 268 l-46 40 -576 -1 -576 0 -50 -31z m741
-344 c19 -3 51 -21 71 -40 l36 -34 -5 -79 c-3 -44 -9 -86 -15 -93 -6 -7 -13
-45 -16 -85 -3 -40 -11 -81 -16 -92 -6 -11 -11 -41 -11 -68 0 -26 -7 -61 -15
-77 -8 -15 -15 -38 -15 -51 0 -12 -19 -42 -43 -69 l-43 -46 -240 0 -240 0 -27
28 c-25 26 -27 35 -27 105 0 46 6 92 15 114 8 19 15 59 15 87 1 28 7 62 15 76
8 14 14 50 15 80 0 30 7 68 15 84 8 15 15 35 15 43 0 36 67 97 125 114 29 8
349 11 391 3z"/>
<path d="M9141 5675 c-29 -18 -65 -47 -80 -63 -40 -44 -91 -121 -91 -136 0 -7
-7 -19 -15 -26 -8 -7 -15 -25 -15 -39 0 -15 -7 -36 -15 -47 -8 -10 -15 -41
-15 -69 0 -27 -7 -63 -15 -79 -8 -15 -15 -50 -15 -77 0 -28 -7 -66 -15 -86 -8
-19 -15 -55 -15 -80 0 -24 -7 -60 -15 -80 -8 -19 -15 -56 -15 -82 -1 -25 -7
-64 -15 -86 -8 -22 -15 -59 -15 -82 0 -24 -6 -60 -14 -80 -8 -21 -17 -67 -19
-102 -3 -35 -10 -68 -16 -74 -6 -6 -11 -36 -11 -67 0 -30 -6 -67 -14 -82 -8
-15 -12 -29 -8 -32 3 -3 107 -6 232 -6 162 0 229 3 238 12 7 7 12 33 12 59 0
25 7 66 15 89 8 23 15 62 15 87 0 24 7 60 15 80 8 19 15 55 15 80 0 24 7 60
15 80 8 19 15 58 15 85 0 27 7 65 15 85 8 19 15 55 15 78 0 23 7 62 15 85 8
23 15 59 15 79 0 46 28 126 58 168 46 65 60 68 335 69 137 1 251 5 255 8 3 4
9 41 13 83 4 41 12 80 18 86 6 6 11 33 11 59 0 27 7 65 15 85 8 19 15 39 15
44 0 5 -190 9 -432 8 l-433 -1 -54 -33z"/>
<path d="M10395 5682 c-22 -16 -47 -31 -56 -34 -19 -7 -98 -107 -121 -153 -45
-90 -65 -155 -78 -257 -5 -37 -13 -76 -19 -87 -16 -29 -13 -122 4 -171 8 -23
15 -51 15 -62 0 -23 11 -37 74 -100 l48 -48 367 0 368 0 21 -23 c30 -32 28
-76 -4 -115 l-27 -32 -483 0 -482 0 -7 -50 c-4 -27 -11 -52 -16 -56 -5 -3 -9
-27 -9 -53 0 -27 -6 -67 -14 -89 -8 -22 -16 -64 -17 -94 l-3 -53 647 -3 c561
-2 652 0 677 13 16 8 36 15 46 15 26 0 111 70 163 136 20 25 71 128 71 143 0
10 7 26 15 37 8 10 15 38 15 62 0 23 7 59 15 79 21 50 21 281 0 309 -8 10 -15
27 -15 36 0 9 -20 36 -44 61 -63 63 -95 67 -478 67 -310 0 -319 1 -339 21 -17
17 -20 28 -15 62 16 97 11 96 548 96 252 -1 462 2 468 6 5 3 10 31 10 61 0 30
7 71 15 91 8 19 15 59 15 87 0 28 7 64 15 80 8 15 15 32 15 37 0 5 -293 9
-682 9 l-683 -1 -40 -27z"/>
<path d="M12125 5675 c-27 -19 -64 -47 -80 -63 -39 -36 -102 -131 -110 -165
-4 -15 -11 -27 -16 -27 -5 0 -9 -15 -9 -32 -1 -18 -7 -44 -15 -58 -8 -14 -14
-47 -15 -73 0 -26 -7 -64 -15 -84 -8 -19 -15 -57 -15 -83 0 -26 -7 -64 -15
-83 -8 -20 -15 -57 -15 -82 0 -25 -7 -62 -15 -82 -8 -19 -15 -55 -15 -80 0
-24 -7 -60 -15 -80 -17 -40 -22 -298 -6 -308 5 -3 12 -18 16 -35 8 -38 77
-107 115 -115 17 -4 32 -11 35 -16 10 -15 1308 -12 1323 3 7 7 12 34 12 60 0
27 7 65 15 85 8 19 15 59 15 87 0 28 7 64 15 80 8 15 15 39 15 52 l0 24 -507
0 c-280 0 -513 4 -518 8 -50 35 -73 132 -36 152 13 6 205 10 553 10 l533 0 13
48 c8 26 17 76 21 112 3 36 12 75 19 87 7 12 12 46 12 75 0 29 7 66 15 82 8
15 15 51 15 78 0 27 7 71 16 98 17 51 16 72 -8 170 -19 76 -40 112 -91 154
l-44 36 -574 0 -574 -1 -50 -34z m777 -357 c32 -15 51 -31 55 -46 9 -38 -3
-222 -16 -235 -6 -6 -11 -20 -11 -32 0 -44 -10 -45 -306 -45 -155 0 -289 3
-298 6 -21 8 -22 111 -1 174 8 25 17 56 19 70 7 35 58 90 103 110 31 14 74 17
223 19 173 2 187 1 232 -21z"/>
</g>
</svg>
